<svg id="Component_3_2" data-name="Component 3 – 2" xmlns="http://www.w3.org/2000/svg" width="707.189" height="628.224" viewBox="0 0 707.189 628.224">
  <g id="Group_1204" data-name="Group 1204" transform="translate(7.753 222.201)">
    <path id="Path_731" data-name="Path 731" d="M343.728,433.38H337.2a43.586,43.586,0,0,0-4.928-11.893l4.622-4.621a3.926,3.926,0,0,0,0-5.552l-9.513-9.513a3.926,3.926,0,0,0-5.552,0l-4.622,4.622a43.569,43.569,0,0,0-11.892-4.928V394.96a3.926,3.926,0,0,0-3.926-3.925H287.929A3.926,3.926,0,0,0,284,394.96v6.533a43.611,43.611,0,0,0-11.893,4.927l-4.621-4.621a3.927,3.927,0,0,0-5.552,0l-9.513,9.513a3.926,3.926,0,0,0,0,5.552l4.621,4.621a43.583,43.583,0,0,0-4.927,11.893h-6.533a3.927,3.927,0,0,0-3.926,3.926V450.76a3.927,3.927,0,0,0,3.926,3.926h6.533a43.583,43.583,0,0,0,4.927,11.893l-4.621,4.621a3.926,3.926,0,0,0,0,5.552l9.513,9.513a3.927,3.927,0,0,0,5.552,0l4.621-4.621A43.613,43.613,0,0,0,284,486.572v6.533a3.927,3.927,0,0,0,3.926,3.926h13.454a3.927,3.927,0,0,0,3.926-3.926v-6.533a43.6,43.6,0,0,0,11.892-4.927l4.622,4.621a3.927,3.927,0,0,0,5.552,0l9.513-9.513a3.927,3.927,0,0,0,0-5.552l-4.622-4.621a43.586,43.586,0,0,0,4.928-11.893h6.533a3.926,3.926,0,0,0,3.926-3.926V437.306A3.926,3.926,0,0,0,343.728,433.38Zm-49.072,37.192a26.539,26.539,0,1,1,26.54-26.539A26.539,26.539,0,0,1,294.656,470.572Z" transform="translate(-218.043 -340.915)" fill="#d7e6f6"/>
    <path id="Path_732" data-name="Path 732" d="M276.694,359.17h-3.982a26.558,26.558,0,0,0-3-7.248l2.817-2.817a2.393,2.393,0,0,0,0-3.384l-5.8-5.8a2.393,2.393,0,0,0-3.384,0l-2.816,2.817a26.592,26.592,0,0,0-7.249-3v-3.982a2.393,2.393,0,0,0-2.392-2.392h-8.2a2.393,2.393,0,0,0-2.392,2.392v3.982a26.586,26.586,0,0,0-7.248,3l-2.817-2.817a2.393,2.393,0,0,0-3.384,0l-5.8,5.8a2.393,2.393,0,0,0,0,3.384l2.817,2.817a26.557,26.557,0,0,0-3,7.248h-3.982a2.393,2.393,0,0,0-2.392,2.393v8.2a2.393,2.393,0,0,0,2.392,2.392h3.982a26.562,26.562,0,0,0,3,7.249l-2.817,2.816a2.393,2.393,0,0,0,0,3.384l5.8,5.8a2.393,2.393,0,0,0,3.384,0l2.817-2.817a26.557,26.557,0,0,0,7.248,3v3.982a2.392,2.392,0,0,0,2.392,2.392h8.2a2.392,2.392,0,0,0,2.392-2.392v-3.982a26.563,26.563,0,0,0,7.249-3l2.816,2.817a2.393,2.393,0,0,0,3.384,0l5.8-5.8a2.393,2.393,0,0,0,0-3.384l-2.817-2.816a26.563,26.563,0,0,0,3-7.249h3.982a2.392,2.392,0,0,0,2.392-2.392v-8.2A2.393,2.393,0,0,0,276.694,359.17Zm-29.908,22.667a16.175,16.175,0,1,1,16.175-16.175A16.174,16.174,0,0,1,246.786,381.837Z" transform="translate(-214.485 -333.362)" fill="#d7e6f6"/>
  </g>
  <path id="Path_733" data-name="Path 733" d="M401.352,681.6H205.571s-1.614-100.045,44.478-99.466c64.424.808,42.613-42.389,63.5-63.5,33.619-33.98,87.8-16.5,87.8-16.5Z" transform="translate(-205.564 -132.674)" fill="#5f6771" opacity="0.1"/>
  <path id="Path_734" data-name="Path 734" d="M410.492,690.186H275.367s-1.114-69.05,30.7-68.651c44.465.559,29.411-29.256,43.829-43.829,23.2-23.452,60.6-11.389,60.6-11.389Z" transform="translate(-214.705 -141.262)" fill="#5f6771" opacity="0.1"/>
  <g id="Group_1205" data-name="Group 1205" transform="translate(55.634 510.31)">
    <ellipse id="Ellipse_107" data-name="Ellipse 107" cx="34.547" cy="5.062" rx="34.547" ry="5.062" fill="#5f6771"/>
  </g>
  <rect id="Rectangle_406" data-name="Rectangle 406" width="488.021" height="369.787" transform="translate(195.787 194.4)" fill="#d7e6f6"/>
  <rect id="Rectangle_407" data-name="Rectangle 407" width="488.021" height="37.524" transform="translate(195.787 194.4)" fill="#2b67af"/>
  <rect id="Rectangle_408" data-name="Rectangle 408" width="19.902" height="19.902" rx="6.182" transform="translate(379.034 528.063)" fill="#fff" opacity="0.5"/>
  <path id="Path_735" data-name="Path 735" d="M911.389,322.9a4.582,4.582,0,1,1-4.582-4.582A4.583,4.583,0,0,1,911.389,322.9Z" transform="translate(-296.797 -109.19)" fill="#fff"/>
  <path id="Path_736" data-name="Path 736" d="M937.767,322.9a4.583,4.583,0,1,1-4.583-4.582A4.583,4.583,0,0,1,937.767,322.9Z" transform="translate(-300.251 -109.19)" fill="#d7e6f6"/>
  <path id="Path_737" data-name="Path 737" d="M964.144,322.9a4.583,4.583,0,1,1-4.583-4.582A4.583,4.583,0,0,1,964.144,322.9Z" transform="translate(-303.705 -109.19)" fill="#404042"/>
  <rect id="Rectangle_409" data-name="Rectangle 409" width="109.607" height="109.607" transform="translate(221.956 251.019)" fill="#529ed6" opacity="0.5"/>
  <g id="Group_1206" data-name="Group 1206" transform="translate(220.743 395.548)" opacity="0.5">
    <path id="Path_738" data-name="Path 738" d="M590.338,535.257H460.784a1.213,1.213,0,1,1,0-2.426H590.338a1.213,1.213,0,0,1,0,2.426Z" transform="translate(-459.571 -532.831)" fill="#529ed6"/>
  </g>
  <g id="Group_1207" data-name="Group 1207" transform="translate(366.74 395.548)">
    <path id="Path_739" data-name="Path 739" d="M716.927,535.257H628.781a1.213,1.213,0,1,1,0-2.426h88.145a1.213,1.213,0,1,1,0,2.426Z" transform="translate(-627.568 -532.831)" fill="#529ed6"/>
  </g>
  <g id="Group_1208" data-name="Group 1208" transform="translate(495.723 395.548)">
    <path id="Path_740" data-name="Path 740" d="M803.888,535.257H777.2a1.213,1.213,0,0,1,0-2.426h26.687a1.213,1.213,0,0,1,0,2.426Z" transform="translate(-775.988 -532.831)" fill="#529ed6" opacity="0.5"/>
  </g>
  <g id="Group_1209" data-name="Group 1209" transform="translate(220.743 425.349)" opacity="0.5">
    <path id="Path_741" data-name="Path 741" d="M559.07,569.548H460.784a1.213,1.213,0,0,1,0-2.426H559.07a1.213,1.213,0,0,1,0,2.426Z" transform="translate(-459.571 -567.122)" fill="#529ed6"/>
  </g>
  <g id="Group_1210" data-name="Group 1210" transform="translate(350.297 425.349)" opacity="0.5">
    <path id="Path_742" data-name="Path 742" d="M684.259,569.548h-74.4a1.213,1.213,0,0,1,0-2.426h74.4a1.213,1.213,0,0,1,0,2.426Z" transform="translate(-608.648 -567.122)" fill="#529ed6"/>
  </g>
  <g id="Group_1211" data-name="Group 1211" transform="translate(462.973 425.349)">
    <path id="Path_743" data-name="Path 743" d="M798.953,569.548H739.515a1.213,1.213,0,0,1,0-2.426h59.437a1.213,1.213,0,0,1,0,2.426Z" transform="translate(-738.302 -567.122)" fill="#529ed6"/>
  </g>
  <g id="Group_1212" data-name="Group 1212" transform="translate(220.743 455.148)">
    <path id="Path_744" data-name="Path 744" d="M627.537,603.839H460.784a1.213,1.213,0,1,1,0-2.425H627.537a1.213,1.213,0,1,1,0,2.425Z" transform="translate(-459.571 -601.413)" fill="#529ed6"/>
  </g>
  <g id="Group_1213" data-name="Group 1213" transform="translate(414.992 455.148)" opacity="0.5">
    <path id="Path_745" data-name="Path 745" d="M718.739,603.839H684.3a1.213,1.213,0,0,1,0-2.425h34.436a1.213,1.213,0,1,1,0,2.425Z" transform="translate(-683.091 -601.413)" fill="#529ed6"/>
  </g>
  <g id="Group_1214" data-name="Group 1214" transform="translate(483.796 455.148)" opacity="0.5">
    <path id="Path_746" data-name="Path 746" d="M802.09,603.839H763.476a1.213,1.213,0,1,1,0-2.425H802.09a1.213,1.213,0,0,1,0,2.425Z" transform="translate(-762.263 -601.413)" fill="#529ed6"/>
  </g>
  <g id="Group_1215" data-name="Group 1215" transform="translate(220.743 484.948)" opacity="0.5">
    <path id="Path_747" data-name="Path 747" d="M530.5,638.129H460.784a1.213,1.213,0,1,1,0-2.426H530.5a1.213,1.213,0,1,1,0,2.426Z" transform="translate(-459.571 -635.703)" fill="#529ed6"/>
  </g>
  <g id="Group_1216" data-name="Group 1216" transform="translate(399.356 484.948)" opacity="0.5">
    <path id="Path_748" data-name="Path 748" d="M721.842,638.129H666.312a1.213,1.213,0,0,1,0-2.426h55.529a1.213,1.213,0,1,1,0,2.426Z" transform="translate(-665.1 -635.703)" fill="#529ed6"/>
  </g>
  <g id="Group_1217" data-name="Group 1217" transform="translate(495.723 484.948)">
    <path id="Path_749" data-name="Path 749" d="M803.888,638.129H777.2a1.213,1.213,0,0,1,0-2.426h26.687a1.213,1.213,0,0,1,0,2.426Z" transform="translate(-775.988 -635.703)" fill="#529ed6"/>
  </g>
  <g id="Group_1218" data-name="Group 1218" transform="translate(220.743 514.749)" opacity="0.5">
    <path id="Path_750" data-name="Path 750" d="M590.338,672.42H460.784a1.213,1.213,0,1,1,0-2.426H590.338a1.213,1.213,0,0,1,0,2.426Z" transform="translate(-459.571 -669.994)" fill="#529ed6"/>
  </g>
  <g id="Group_1219" data-name="Group 1219" transform="translate(397.739 514.749)">
    <path id="Path_751" data-name="Path 751" d="M721.6,672.42H664.451a1.213,1.213,0,0,1,0-2.426H721.6a1.213,1.213,0,1,1,0,2.426Z" transform="translate(-663.239 -669.994)" fill="#529ed6"/>
  </g>
  <g id="Group_1220" data-name="Group 1220" transform="translate(495.723 514.749)">
    <path id="Path_752" data-name="Path 752" d="M803.888,672.42H777.2a1.213,1.213,0,0,1,0-2.426h26.687a1.213,1.213,0,0,1,0,2.426Z" transform="translate(-775.988 -669.994)" fill="#529ed6" opacity="0.5"/>
  </g>
  <rect id="Rectangle_410" data-name="Rectangle 410" width="4.868" height="4.868" transform="translate(357.298 394.328)" fill="#529ed6" opacity="0.5"/>
  <rect id="Rectangle_411" data-name="Rectangle 411" width="4.868" height="4.868" transform="translate(467.47 394.328)" fill="#fff"/>
  <rect id="Rectangle_412" data-name="Rectangle 412" width="4.868" height="4.868" transform="translate(481.224 394.328)" fill="#fff"/>
  <rect id="Rectangle_413" data-name="Rectangle 413" width="4.868" height="4.868" transform="translate(435.735 424.128)" fill="#529ed6" opacity="0.5"/>
  <rect id="Rectangle_414" data-name="Rectangle 414" width="4.868" height="4.868" transform="translate(449.489 424.128)" fill="#529ed6" opacity="0.5"/>
  <rect id="Rectangle_415" data-name="Rectangle 415" width="4.868" height="4.868" transform="translate(326.565 424.128)" fill="#fff"/>
  <rect id="Rectangle_416" data-name="Rectangle 416" width="4.868" height="4.868" transform="translate(340.318 424.128)" fill="#fff"/>
  <rect id="Rectangle_417" data-name="Rectangle 417" width="4.868" height="4.868" transform="translate(393.145 453.928)" fill="#fff"/>
  <rect id="Rectangle_418" data-name="Rectangle 418" width="4.868" height="4.868" transform="translate(406.899 453.928)" fill="#fff"/>
  <rect id="Rectangle_419" data-name="Rectangle 419" width="4.868" height="4.868" transform="translate(458.378 453.928)" fill="#fff"/>
  <rect id="Rectangle_420" data-name="Rectangle 420" width="4.868" height="4.868" transform="translate(472.132 453.928)" fill="#fff"/>
  <rect id="Rectangle_421" data-name="Rectangle 421" width="4.868" height="4.868" transform="translate(304.068 483.728)" fill="#fff"/>
  <rect id="Rectangle_422" data-name="Rectangle 422" width="4.868" height="4.868" transform="translate(317.822 483.728)" fill="#fff"/>
  <rect id="Rectangle_423" data-name="Rectangle 423" width="4.868" height="4.868" transform="translate(331.576 483.728)" fill="#fff"/>
  <rect id="Rectangle_424" data-name="Rectangle 424" width="4.868" height="4.868" transform="translate(345.329 483.728)" fill="#529ed6" opacity="0.5"/>
  <rect id="Rectangle_425" data-name="Rectangle 425" width="4.868" height="4.868" transform="translate(359.083 483.728)" fill="#529ed6" opacity="0.5"/>
  <rect id="Rectangle_426" data-name="Rectangle 426" width="4.868" height="4.868" transform="translate(372.837 483.728)" fill="#529ed6" opacity="0.5"/>
  <rect id="Rectangle_427" data-name="Rectangle 427" width="4.868" height="4.868" transform="translate(386.591 483.728)" fill="#529ed6" opacity="0.5"/>
  <rect id="Rectangle_428" data-name="Rectangle 428" width="4.868" height="4.868" transform="translate(467.206 513.527)" fill="#529ed6" opacity="0.5"/>
  <rect id="Rectangle_429" data-name="Rectangle 429" width="4.868" height="4.868" transform="translate(480.96 513.527)" fill="#529ed6" opacity="0.5"/>
  <rect id="Rectangle_430" data-name="Rectangle 430" width="4.868" height="4.868" transform="translate(359.043 513.527)" fill="#fff"/>
  <rect id="Rectangle_431" data-name="Rectangle 431" width="4.868" height="4.868" transform="translate(372.797 513.527)" fill="#fff"/>
  <rect id="Rectangle_432" data-name="Rectangle 432" width="4.868" height="4.868" transform="translate(386.551 513.527)" fill="#fff"/>
  <rect id="Rectangle_433" data-name="Rectangle 433" width="68.61" height="16.693" transform="translate(357.298 251.019)" fill="#529ed6"/>
  <rect id="Rectangle_434" data-name="Rectangle 434" width="161.065" height="16.693" transform="translate(357.298 343.627)" fill="#2b67af"/>
  <g id="Group_1221" data-name="Group 1221" transform="translate(356.084 284.26)">
    <path id="Path_753" data-name="Path 753" d="M669.767,407.2H616.52a1.213,1.213,0,1,1,0-2.426h53.246a1.213,1.213,0,0,1,0,2.426Z" transform="translate(-615.307 -404.773)" fill="#529ed6" opacity="0.5"/>
  </g>
  <g id="Group_1222" data-name="Group 1222" transform="translate(356.084 298.014)">
    <path id="Path_754" data-name="Path 754" d="M688.1,423.025H616.52a1.213,1.213,0,1,1,0-2.426H688.1a1.213,1.213,0,1,1,0,2.426Z" transform="translate(-615.307 -420.599)" fill="#529ed6" opacity="0.5"/>
  </g>
  <g id="Group_1223" data-name="Group 1223" transform="translate(356.084 311.767)">
    <path id="Path_755" data-name="Path 755" d="M704.269,438.851H616.52a1.213,1.213,0,0,1,0-2.426h87.749a1.213,1.213,0,0,1,0,2.426Z" transform="translate(-615.307 -436.425)" fill="#529ed6" opacity="0.5"/>
  </g>
  <g id="Group_1224" data-name="Group 1224" transform="translate(356.084 325.521)">
    <path id="Path_756" data-name="Path 756" d="M745.314,454.677H616.52a1.213,1.213,0,1,1,0-2.425H745.314a1.213,1.213,0,1,1,0,2.425Z" transform="translate(-615.307 -452.252)" fill="#529ed6" opacity="0.5"/>
  </g>
  <rect id="Rectangle_435" data-name="Rectangle 435" width="198.45" height="224.868" transform="translate(119.372 113.133)" fill="#dfe1e3"/>
  <rect id="Rectangle_436" data-name="Rectangle 436" width="198.45" height="36.306" transform="translate(119.372 113.133)" fill="#bfc2c6"/>
  <path id="Path_757" data-name="Path 757" d="M508.434,228.816a4,4,0,1,1-4-4A4,4,0,0,1,508.434,228.816Z" transform="translate(-244.179 -96.946)" fill="#fff"/>
  <circle id="Ellipse_108" data-name="Ellipse 108" cx="3.999" cy="3.999" r="3.999" transform="translate(276.261 127.87)" fill="#d7e6f6"/>
  <circle id="Ellipse_109" data-name="Ellipse 109" cx="3.999" cy="3.999" r="3.999" transform="translate(296.266 127.87)" fill="#404042"/>
  <rect id="Rectangle_437" data-name="Rectangle 437" width="60.92" height="60.92" transform="translate(134.868 160.761)" fill="#2b67af"/>
  <rect id="Rectangle_438" data-name="Rectangle 438" width="83.214" height="16.173" transform="translate(173.914 239.387)" fill="#529ed6"/>
  <g id="Group_1225" data-name="Group 1225" transform="translate(209.509 177.828)">
    <path id="Path_758" data-name="Path 758" d="M501.1,284.729H447.856a1.213,1.213,0,0,1,0-2.425H501.1a1.213,1.213,0,1,1,0,2.425Z" transform="translate(-446.644 -282.303)" fill="#5f6771"/>
  </g>
  <g id="Group_1226" data-name="Group 1226" transform="translate(209.509 191.582)">
    <path id="Path_759" data-name="Path 759" d="M519.433,300.555H447.856a1.213,1.213,0,0,1,0-2.426h71.576a1.213,1.213,0,0,1,0,2.426Z" transform="translate(-446.644 -298.129)" fill="#5f6771"/>
  </g>
  <g id="Group_1227" data-name="Group 1227" transform="translate(209.509 205.335)">
    <path id="Path_760" data-name="Path 760" d="M535.605,316.381H447.856a1.213,1.213,0,0,1,0-2.426h87.749a1.213,1.213,0,0,1,0,2.426Z" transform="translate(-446.644 -313.955)" fill="#5f6771"/>
  </g>
  <g id="Group_1228" data-name="Group 1228" transform="translate(170.886 276.805)">
    <path id="Path_761" data-name="Path 761" d="M490.258,398.62H403.414a1.213,1.213,0,0,1,0-2.426h86.844a1.213,1.213,0,0,1,0,2.426Z" transform="translate(-402.201 -396.194)" fill="#5f6771"/>
  </g>
  <g id="Group_1229" data-name="Group 1229" transform="translate(145.279 290.558)">
    <path id="Path_762" data-name="Path 762" d="M517.128,414.446H373.947a1.213,1.213,0,0,1,0-2.426H517.128a1.213,1.213,0,0,1,0,2.426Z" transform="translate(-372.735 -412.02)" fill="#5f6771"/>
  </g>
  <g id="Group_1230" data-name="Group 1230" transform="translate(170.886 304.313)">
    <path id="Path_763" data-name="Path 763" d="M490.258,430.273H403.414a1.213,1.213,0,1,1,0-2.426h86.844a1.213,1.213,0,1,1,0,2.426Z" transform="translate(-402.201 -427.847)" fill="#5f6771"/>
  </g>
  <rect id="Rectangle_439" data-name="Rectangle 439" width="343.491" height="146.767" transform="translate(340.318 24.588)" fill="#97c5e6"/>
  <path id="Path_764" data-name="Path 764" d="M940.656,105.971s-15.283,44.793-106.537,58.54-173.208,20.194-236.954,88.226H940.656Z" transform="translate(-256.847 -81.383)" fill="#75b1de"/>
  <path id="Path_765" data-name="Path 765" d="M691.62,704.567l63.425-8.9,8.278,48.913L699.976,754.7Z" transform="translate(-269.216 -158.608)" fill="#b9bec3"/>
  <path id="Path_766" data-name="Path 766" d="M701.236,762.075l39.794,23.82,66.236-13.863-42.685-20.077Z" transform="translate(-270.476 -165.979)" fill="#dbdee0"/>
  <path id="Path_767" data-name="Path 767" d="M691.351,705.907h-1.786l10.142,57.551v-7.413Z" transform="translate(-268.947 -159.948)" fill="#9fa4aa"/>
  <path id="Path_768" data-name="Path 768" d="M701.236,771.013l39.794,24.715V787.42L701.236,763.6Z" transform="translate(-270.476 -167.504)" fill="#b9bec3"/>
  <path id="Path_769" data-name="Path 769" d="M747.027,797.228l66.236-14.067v-8.1L747.027,788.92Z" transform="translate(-276.472 -169.004)" fill="#9fa4aa"/>
  <path id="Path_770" data-name="Path 770" d="M689.565,704.567l65.21-8.9-63.425,8.9Z" transform="translate(-268.947 -158.608)" fill="#9fa4aa"/>
  <path id="Path_771" data-name="Path 771" d="M708.99,763.8,731.9,776.884l57.269-10.491-24.248-11.478Z" transform="translate(-271.491 -166.366)" fill="#fff" opacity="0.5"/>
  <path id="Path_772" data-name="Path 772" d="M762.24,777.856l6.142,3.508,15.485-2.75-6.633-3.14Z" transform="translate(-278.464 -169.059)" fill="#fff" opacity="0.5"/>
  <path id="Path_773" data-name="Path 773" d="M695.911,707.174l56.828-7.97,7.417,43.826L703.4,752.1Z" transform="translate(-269.778 -159.07)" fill="#fff"/>
  <rect id="Rectangle_440" data-name="Rectangle 440" width="12.924" height="12.924" rx="3.178" transform="translate(382.563 531.553)" fill="#b9bec3"/>
  <g id="Group_1231" data-name="Group 1231" transform="translate(368.375 536.888)">
    <path id="Path_774" data-name="Path 774" d="M665.826,767.176c-8.157,0-16.041-1.079-21.118-4.371a11.925,11.925,0,0,1-5.551-7.9c-2.452-12.695,10.664-17.085,20.241-20.29,4.179-1.4,8.5-2.845,8.977-4.333.038-.118.154-.479-.4-1.242-2.115-2.913-10.6-4.3-18.089-5.519-8.465-1.381-16.461-2.685-19.01-6.21a6.856,6.856,0,0,1-1.145-6.126c2.326-8.282,19.145-15.419,19.86-15.719l.938,2.238c-4.57,1.918-16.8,8.2-18.463,14.138a4.479,4.479,0,0,0,.776,4.048c1.961,2.713,10.183,4.053,17.435,5.236,8.721,1.424,16.959,2.767,19.661,6.487a3.715,3.715,0,0,1,.748,3.408c-.851,2.658-4.906,4.015-10.517,5.893-9.213,3.084-20.678,6.922-18.629,17.53a9.462,9.462,0,0,0,4.488,6.321c13.57,8.8,50.883.229,51.26.14l.551,2.363C696.819,763.51,680.859,767.176,665.826,767.176Z" transform="translate(-629.45 -695.469)" fill="#529ed6" opacity="0.5"/>
  </g>
  <g id="Group_1232" data-name="Group 1232" transform="translate(160.795 454.044)">
    <path id="Path_775" data-name="Path 775" d="M407.782,634.6l-17.193-16.914,17.165-17.549,2.89,2.827L396.3,617.635l14.319,14.087Z" transform="translate(-390.589 -600.141)" fill="#d7e6f6"/>
  </g>
  <g id="Group_1233" data-name="Group 1233" transform="translate(210.725 454.044)">
    <path id="Path_776" data-name="Path 776" d="M450.907,634.6l-2.836-2.883,14.318-14.087-14.346-14.667,2.89-2.827L468.1,617.691Z" transform="translate(-448.044 -600.141)" fill="#d7e6f6"/>
  </g>
  <g id="Group_1234" data-name="Group 1234" transform="translate(186.594 455.777)">
    <rect id="Rectangle_441" data-name="Rectangle 441" width="32.673" height="4.043" transform="matrix(0.452, -0.892, 0.892, 0.452, 0, 29.138)" fill="#d7e6f6"/>
  </g>
  <path id="Rectangle_442" data-name="Rectangle 442" d="M6.423,0H62.188A6.422,6.422,0,0,1,68.61,6.422v3.848a6.422,6.422,0,0,1-6.422,6.422H6.423A6.423,6.423,0,0,1,0,10.271V6.423A6.423,6.423,0,0,1,6.423,0Z" transform="translate(571.123 139.877)" fill="#fff"/>
  <g id="Group_1235" data-name="Group 1235" transform="translate(564.518 86.774)">
    <path id="Path_777" data-name="Path 777" d="M910.014,180.763H856.767a1.618,1.618,0,0,1,0-3.235h53.246a1.618,1.618,0,0,1,0,3.235Z" transform="translate(-855.15 -177.528)" fill="#d7e6f6"/>
  </g>
  <g id="Group_1236" data-name="Group 1236" transform="translate(564.518 100.528)">
    <path id="Path_778" data-name="Path 778" d="M928.343,196.59H856.767a1.617,1.617,0,0,1,0-3.235h71.576a1.617,1.617,0,0,1,0,3.235Z" transform="translate(-855.15 -193.355)" fill="#d7e6f6"/>
  </g>
  <g id="Group_1237" data-name="Group 1237" transform="translate(564.518 114.282)">
    <path id="Path_779" data-name="Path 779" d="M944.517,212.416h-87.75a1.617,1.617,0,0,1,0-3.235h87.75a1.617,1.617,0,0,1,0,3.235Z" transform="translate(-855.15 -209.181)" fill="#d7e6f6"/>
  </g>
  <g id="Group_1238" data-name="Group 1238" transform="translate(624.553)">
    <path id="Path_780" data-name="Path 780" d="M1006.867,119c0,2.074-4.812,3.749-5.124,5.736-.321,2.041,3.735,5.113,3.111,7.035-.635,1.956-5.728,2.059-6.65,3.865-.932,1.825,1.97,6.008.773,7.653s-6.077.177-7.52,1.62.033,6.317-1.62,7.52-5.827-1.705-7.653-.773c-1.807.922-1.908,6.016-3.865,6.651-1.922.624-5-3.433-7.035-3.112-1.987.313-3.661,5.124-5.737,5.124s-3.749-4.811-5.736-5.124c-2.04-.32-5.113,3.736-7.034,3.112-1.956-.635-2.059-5.729-3.866-6.651-1.826-.932-6.008,1.97-7.653.773s-.178-6.077-1.62-7.52-6.317.033-7.52-1.62,1.705-5.827.773-7.652c-.923-1.807-6.016-1.909-6.651-3.865-.624-1.921,3.432-4.994,3.111-7.035-.312-1.987-5.123-3.661-5.123-5.736s4.811-3.749,5.123-5.737c.321-2.041-3.735-5.113-3.111-7.035.635-1.956,5.728-2.059,6.651-3.866.932-1.825-1.97-6.008-.773-7.653s6.078-.177,7.52-1.62-.033-6.316,1.62-7.52,5.828,1.705,7.653.773c1.807-.922,1.909-6.016,3.865-6.651,1.922-.624,5,3.433,7.035,3.112,1.987-.313,3.661-5.124,5.736-5.124s3.749,4.811,5.737,5.124c2.04.321,5.113-3.736,7.035-3.112,1.956.635,2.058,5.729,3.865,6.651,1.826.932,6.008-1.97,7.653-.773s.178,6.077,1.621,7.52,6.316-.033,7.519,1.62-1.705,5.827-.773,7.653c.922,1.806,6.015,1.908,6.65,3.865.624,1.921-3.432,4.994-3.111,7.035C1002.056,115.247,1006.867,116.921,1006.867,119Z" transform="translate(-924.231 -77.678)" fill="#529ed6"/>
  </g>
  <path id="Path_781" data-name="Path 781" d="M993.9,121.3a26.043,26.043,0,1,1-9.761-20.33A26.047,26.047,0,0,1,993.9,121.3Z" transform="translate(-301.98 -79.979)" fill="#2b67af"/>
  <g id="Group_1239" data-name="Group 1239" transform="translate(654.564 30.031)">
    <path id="Path_782" data-name="Path 782" d="M969.149,138.67a1.662,1.662,0,0,1-1.383-.742l-8.724-13.137a1.66,1.66,0,1,1,2.766-1.836l7.278,10.96,12.674-20.881a1.661,1.661,0,0,1,2.839,1.723l-14.031,23.115a1.661,1.661,0,0,1-1.386.8Z" transform="translate(-958.764 -112.235)" fill="#d7e6f6"/>
  </g>
  <path id="Path_783" data-name="Path 783" d="M900.931,754.85s3.159,4.9,3.766,8.943a24.7,24.7,0,0,1-.619,9.537s-55.734-1.982-56.229-5.822,32.82-11.765,32.82-11.765l7.308-5.326Z" transform="translate(-289.675 -165.777)" fill="#5f6771"/>
  <path id="Path_784" data-name="Path 784" d="M935.717,598.021c-4.747,5.281-8.92,9.228-12.519,12.584v.008c-1.771,1.642-3.4,3.146-4.9,4.6-6.348,6.161-10.245,11.321-11.774,22.165-2.62,18.6,0,92.73,0,92.73a54.5,54.5,0,0,1-12.592,3.235,30.9,30.9,0,0,1-11.992-1.351s-14.427-94.348-4.723-113.481,29.307-43.4,29.307-43.4l29.193-13.747L936.9,562.4l7.787,6.85,3.21,2.823S952.7,579.155,935.717,598.021Z" transform="translate(-293.082 -141.02)" fill="#97c5e6"/>
  <path id="Path_785" data-name="Path 785" d="M979.443,711.994s-5.928-2.426-11.589-1.755c-5.3.63-11.321,5.531-12.049,6.137l-.072.065s-28.2-74.843-26.792-100.057a177.532,177.532,0,0,0,20.314-19.328,40.742,40.742,0,0,0,10.375-29.8l-2.345-2.547,7.472-5.83,13.084,13.973s-.421,17.3-8.774,27.811-13.481,21.025-8.629,38.816S979.443,711.994,979.443,711.994Z" transform="translate(-300.289 -140.694)" fill="#97c5e6"/>
  <path id="Path_786" data-name="Path 786" d="M949.263,597.936a177.543,177.543,0,0,1-20.314,19.328,13.674,13.674,0,0,1,1.463-6.1v-.008c3.6-3.356,7.772-7.3,12.519-12.584,16.982-18.866,12.179-25.95,12.179-25.95L951.9,569.8l5.393-4.213,2.345,2.547A40.742,40.742,0,0,1,949.263,597.936Z" transform="translate(-300.296 -141.573)" fill="#529ed6"/>
  <path id="Path_787" data-name="Path 787" d="M1000.153,460.257s9.679,43.907-1.5,47.483-22.468-6.776-22.468-6.776l2.8-26.3Z" transform="translate(-306.483 -127.779)" fill="#2b67af"/>
  <path id="Path_788" data-name="Path 788" d="M961.3,451.258l-16.619-11.006a17.913,17.913,0,0,0-.105-8.038l17.808,4.1-13.82-23.088-17.678-4.06a114.938,114.938,0,0,0-8.733-8.637c-.76-.687-.558-1.528-1.35-2.207l6.146-5.879-32.614-21.576-7.133,6.042A159.946,159.946,0,0,0,871.687,370l-7.553-12.624-32.307-7.423,7.626,12.728a42.1,42.1,0,0,0-10.658.914l-3.631-2.394-14.443-9.559L797.67,362.717l18.276,12.089a12.174,12.174,0,0,0-.195,1.221,16.111,16.111,0,0,0-.04,3.7,21.564,21.564,0,0,0,.5,3.073l-18.187-4.181,8.152,13.618,5.677,9.47,18.341,4.213L840.9,416.194l-7.423,6.291,32.613,21.576,5.184-4.4,2.24-1.9,12.341,5.531h.008l2.588,1.157,7.844,13.109,32.29,7.423-7.787-13a43.028,43.028,0,0,0,10.618-.793l3.1,2.054L949.7,463.283l13.051-11.071Zm-57.157-27.746c-3.033,2.579-9.251,2.564-16.489.428-.186-.056-.38-.105-.558-.169a65.38,65.38,0,0,1-16.674-8.006,59.133,59.133,0,0,1-8.5-6.737A29.379,29.379,0,0,1,855,399.714c-1.407-3.356-1.188-6.227.971-8.063a6.872,6.872,0,0,1,1.439-.922c2.184-1.051,5.281-1.3,8.912-.833a47.512,47.512,0,0,1,12,3.413,68,68,0,0,1,11.378,6.1c10.23,6.769,16.416,14.709,16.3,20.071A5.157,5.157,0,0,1,904.148,423.513Z" transform="translate(-283.104 -113.333)" fill="#529ed6" opacity="0.5"/>
  <path id="Path_789" data-name="Path 789" d="M912.655,429.5c-3.037,2.58-9.25,2.558-16.494.428-.185-.056-.374-.106-.555-.169-2.036-4.894-7.532-10.82-15.422-16.043a68.156,68.156,0,0,0-11.381-6.1c-1.8-.754-3.578-1.395-5.3-1.922-1.407-3.355-1.184-6.229.974-8.061,2.133-1.808,5.83-2.337,10.348-1.756a47.282,47.282,0,0,1,12,3.414,68.161,68.161,0,0,1,11.381,6.1C911.518,414.2,917.984,424.987,912.655,429.5Z" transform="translate(-291.61 -119.319)" fill="#2b67af"/>
  <path id="Path_790" data-name="Path 790" d="M882.237,450.994,871.691,468.8l-7.424,6.292,10.545-17.8Z" transform="translate(-291.826 -126.566)" fill="#529ed6"/>
  <path id="Path_791" data-name="Path 791" d="M830.741,413.717l-10.543,17.8L801.862,427.3l10.543-17.8Z" transform="translate(-283.653 -121.132)" fill="#529ed6"/>
  <path id="Path_792" data-name="Path 792" d="M869.9,454.992l-10.545,17.8-32.614-21.567,10.545-17.807Z" transform="translate(-286.911 -124.264)" fill="#529ed6" opacity="0.75"/>
  <path id="Path_793" data-name="Path 793" d="M844.212,424.625l-7.424,6.294-5.554,9.378a.637.637,0,0,1-.07-.058l-8.2-8.085,10.543-17.8C837.432,417.88,840.208,421.209,844.212,424.625Z" transform="translate(-286.416 -121.768)" fill="#2b67af"/>
  <path id="Path_794" data-name="Path 794" d="M850.342,454.5a.648.648,0,0,0,.076.063v.008Z" transform="translate(-290.002 -127.024)" fill="none" stroke="#000" stroke-miterlimit="10" stroke-width="1"/>
  <path id="Path_795" data-name="Path 795" d="M898.291,457.682l-10.545,17.807L872.81,468.8l10.545-17.807q6.029,3.069,11.993,5.515C896.334,456.914,897.313,457.31,898.291,457.682Z" transform="translate(-292.944 -126.565)" fill="#2b67af"/>
  <path id="Path_796" data-name="Path 796" d="M908.384,471.8l-10.543,17.8-7.847-13.1,10.547-17.808Z" transform="translate(-295.194 -127.574)" fill="#529ed6"/>
  <path id="Path_797" data-name="Path 797" d="M810.321,406.022l-10.543,17.8-13.835-23.083,10.547-17.808,8.153,13.621Z" transform="translate(-281.568 -117.653)" fill="#529ed6" opacity="0.75"/>
  <path id="Path_798" data-name="Path 798" d="M814.626,384.717l-18.19-4.179-3.88,6.551-7.023-4.649,10.543-17.8,18.283,12.091a16.123,16.123,0,0,0-.236,4.917A21.559,21.559,0,0,0,814.626,384.717Z" transform="translate(-281.515 -115.257)" fill="#529ed6"/>
  <path id="Path_799" data-name="Path 799" d="M843.6,362.676a41.846,41.846,0,0,0-10.663.918l-3.629-2.4,6.663-11.25Z" transform="translate(-287.248 -113.333)" fill="#529ed6"/>
  <path id="Path_800" data-name="Path 800" d="M944.686,440.252,961.3,451.258c-10.715,6.041-25.069,5.919-40.943-16.311a89.333,89.333,0,0,0-14.354-15.47c.113-5.362-6.073-13.3-16.3-20.071a68,68,0,0,0-11.378-6.1,47.512,47.512,0,0,0-12-3.413c-3.631-.469-6.728-.218-8.912.833a365.664,365.664,0,0,0-41.663-14.7,12.174,12.174,0,0,1,.195-1.221L797.67,362.717l13.051-11.079,14.443,9.559,3.631,2.394a42.1,42.1,0,0,1,10.658-.914l-7.626-12.728,32.307,7.423L871.687,370a159.946,159.946,0,0,1,15.518,6.914l7.133-6.042,32.614,21.576-6.146,5.879c.793.68.59,1.52,1.35,2.207a114.938,114.938,0,0,1,8.733,8.637l17.678,4.06,13.82,23.088-17.808-4.1A17.913,17.913,0,0,1,944.686,440.252Z" transform="translate(-283.104 -113.333)" fill="#529ed6" opacity="0.75"/>
  <g id="Group_1240" data-name="Group 1240" transform="translate(637.256 277.057)">
    <path id="Path_801" data-name="Path 801" d="M948.611,400.292c-.55-2.83-1.981-3.558-2.791-3.736a2.838,2.838,0,0,0-.631-.072c-2.709,0-4.981,3.841-5.895,7.933-.987,4.416-.421,9.227,2.555,9.9a3.177,3.177,0,0,0,.6.064c.881,0,2.175-.412,3.526-2.264a7.013,7.013,0,0,0,.413-.614l.016-.017a16.633,16.633,0,0,0,1.965-5.038,17.369,17.369,0,0,0,.445-3.922A12.914,12.914,0,0,0,948.611,400.292Zm-6.228,11.653c-.534-.121-1.107-1.5-1.107-3.68a15.4,15.4,0,0,1,.388-3.315c.866-3.89,2.717-6.041,3.534-6.041.032,0,.064.009.089.009.3.072.72.671.947,1.835a14.749,14.749,0,0,1-2.224,9.938C943.313,411.646,942.674,412.01,942.383,411.945Z" transform="translate(-938.849 -396.484)" fill="#529ed6"/>
  </g>
  <path id="Path_802" data-name="Path 802" d="M946.372,406.286a13.435,13.435,0,0,1-2,4.771c-.7.954-1.335,1.318-1.626,1.253-.534-.121-1.107-1.5-1.107-3.68a15.388,15.388,0,0,1,.388-3.315c.865-3.89,2.717-6.041,3.534-6.041.032,0,.064.009.089.009.3.072.72.671.946,1.835A13.434,13.434,0,0,1,946.372,406.286Z" transform="translate(-301.958 -119.793)" fill="#d7e6f6"/>
  <path id="Path_803" data-name="Path 803" d="M957.264,433.535s-1.224,6.921-3.448,10.459a56.24,56.24,0,0,0-4,8.087l15.926-1.011,10.816-4.65,3.276-11.511-.647-4.46-8.066-6.571-11.848,1.112Z" transform="translate(-303.029 -123.015)" fill="#bfc2c6"/>
  <path id="Path_804" data-name="Path 804" d="M950.4,394.991a41.4,41.4,0,0,0-6.166,14.421,162.468,162.468,0,0,0-2.729,16.915s22.744,8.592,32.448-1.921,3.943-25.373,3.943-25.373l-14.354-5.863Z" transform="translate(-301.941 -118.994)" fill="#dfe1e3"/>
  <path id="Path_805" data-name="Path 805" d="M953.882,375.568s-7.244,12.366-2.392,17.118,7.683,3.841,8.391,9-1.752,5.087-2.9,7.783.606,7.144.606,7.144,9.893-10.475,13.533-5.39,3.113,7.21-1.74,8.422c-4.018,1-5.391,3.437-3.841,6.065.927,1.572,19.207,8.323,26.349-5.391,6.411-12.307,1.281-17.252,1.281-17.252a17.208,17.208,0,0,0-8.694-19.678c-11.6-6.609-19.24.2-24.395-.674C956.3,382.069,953.882,375.568,953.882,375.568Z" transform="translate(-303.029 -116.688)" fill="#2b67af"/>
  <g id="Group_1241" data-name="Group 1241" transform="translate(640.026 280.003)">
    <path id="Path_806" data-name="Path 806" d="M970.1,414.4c-3.107-4.781-21.6-10.248-28.067-12.206l.7-2.322c2.468.747,23.213,8.139,27.365,14.528Z" transform="translate(-942.036 -399.874)" fill="#529ed6"/>
  </g>
  <path id="Path_807" data-name="Path 807" d="M979.846,529.3a96.736,96.736,0,0,1-2.968,26.621,42.423,42.423,0,0,1-9.567,5.928,30.332,30.332,0,0,1-11.863,3.1l-1.949-5.555v-.009l-1.69-4.811-2.83,8.353s-1.747,2.7-19,4.852-33.018-5.523-33.018-5.523,2.734-23.128,6.753-38.76c10.084-5.692,23.7-17.426,34.636-28.222,11.4-11.265,6.995-21.753,6.728-22.352a14.382,14.382,0,0,1-1.593,6.178c-3.469,7.068-22.619,28.441-37.822,37.79a26.356,26.356,0,0,1,2.418-5.378c2.385-3.7,4.221-10.529,5.952-18.058,1.529-6.606,2.976-13.772,4.658-19.837,1.423-5.126,3.008-9.469,4.957-12.041,6.874-9.1,34.264-13.343,34.264-13.343s18.5-2.628,28.611,4.448-4.65,35.784-8.087,46.094a25.61,25.61,0,0,0-.857,3.227C975.868,510.574,979.3,517.043,979.846,529.3Z" transform="translate(-296.107 -126.142)" fill="#529ed6"/>
  <path id="Path_808" data-name="Path 808" d="M939.363,499.066c-10.933,10.8-24.551,22.53-34.636,28.222.623-2.418,1.27-4.657,1.949-6.606,15.2-9.348,34.352-30.722,37.822-37.79a14.382,14.382,0,0,0,1.593-6.178C946.358,477.313,950.765,487.8,939.363,499.066Z" transform="translate(-297.124 -129.935)" fill="#2b67af"/>
  <path id="Path_809" data-name="Path 809" d="M985.4,564.1a42.417,42.417,0,0,1-9.566,5.928,30.332,30.332,0,0,1-11.863,3.1l-1.949-5.555v-.009s14.144-2.45,18.252-6.291c3.736-3.494,4.723-38.687-8.094-45.132-7.626-3.841,13.917-5.96,13.917-5.96-1.706,8.572,1.73,15.041,2.273,27.3A96.728,96.728,0,0,1,985.4,564.1Z" transform="translate(-304.627 -134.316)" fill="#2b67af"/>
  <path id="Path_810" data-name="Path 810" d="M843.263,468.649s-.88-3.121-6.811-5.687a18.755,18.755,0,0,1-9.929-8.883c-2.022-3.369,2.482-12.891,5.851-14.913s2.831,3.437,9.789,7.407c4.779,2.726,4.779,2.726,5.778,4.926,1.912,4.205-.309,7.8,2.389,9.829s3.642.953,2.7,2.032S843.263,468.649,843.263,468.649Z" transform="translate(-286.817 -124.96)" fill="#dfe1e3"/>
  <g id="Group_1242" data-name="Group 1242" transform="translate(611.423 400.761)">
    <path id="Path_811" data-name="Path 811" d="M919.449,545.565q-.5,0-1.014-.028a17.643,17.643,0,0,1-8.484-3.054,2.022,2.022,0,0,1,2.38-3.269,13.647,13.647,0,0,0,6.333,2.285,15.6,15.6,0,0,0,6.347-1.018,2.022,2.022,0,0,1,1.636,3.7A19.4,19.4,0,0,1,919.449,545.565Z" transform="translate(-909.122 -538.829)" fill="#2b67af"/>
  </g>
  <path id="Path_812" data-name="Path 812" d="M973.113,743.235c-10.609,1.213-13.335-4-13.335-4l.072-.065c.728-.607,6.745-5.507,12.049-6.137,5.661-.672,11.589,1.755,11.589,1.755S983.723,742.022,973.113,743.235Z" transform="translate(-304.333 -163.485)" fill="#2b67af"/>
  <path id="Path_813" data-name="Path 813" d="M979.615,730.761a19.4,19.4,0,0,0-3.494-1.48s-6.89-1.311-9.728,5.151c-1.69,3.833-3.195,10.278-5.33,15.567-1.456,3.607-3.194,6.672-5.5,8.046A35.127,35.127,0,0,1,948.7,761.1a74.65,74.65,0,0,1-7.569-.97,38.317,38.317,0,0,0,12.146-4.376c2.3-1.374,4.044-4.447,5.491-8.046,2.134-5.3,3.639-11.734,5.337-15.575,2.83-6.454,9.728-5.144,9.728-5.144C977.027,728.06,978.8,729.086,979.615,730.761Z" transform="translate(-301.891 -162.695)" fill="#5f6771"/>
  <path id="Path_814" data-name="Path 814" d="M958.711,750.7c-1.452,3.6-3.193,6.674-5.493,8.048a38.156,38.156,0,0,1-12.141,4.373s-2.6-8.774,5.73-11.922C954.591,748.26,958.711,750.7,958.711,750.7Z" transform="translate(-301.834 -165.69)" fill="#5f6771"/>
  <path id="Path_815" data-name="Path 815" d="M978.58,749.931c-2.192,11.782-18.762,12.308-28.74,11.516a35.127,35.127,0,0,0,6.865-3.056c2.3-1.375,4.043-4.44,5.5-8.047,2.135-5.289,3.64-11.734,5.33-15.567,2.838-6.461,9.728-5.151,9.728-5.151a19.4,19.4,0,0,1,3.494,1.48C982.187,734.065,980.6,739.063,978.58,749.931Z" transform="translate(-303.032 -163.04)" fill="#404042"/>
  <path id="Path_816" data-name="Path 816" d="M922.3,479.83s-4.245,11.743-4.35,11.743-10.157,2.014-10.157,2.014l-8.766-2.014,10.545-17.8,10.214,2.345Z" transform="translate(-296.377 -129.549)" fill="#529ed6" opacity="0.75"/>
  <path id="Path_817" data-name="Path 817" d="M938.216,474.982v.008a14.384,14.384,0,0,1-1.593,6.178c-3.469,7.068-22.619,28.441-37.822,37.789q-1.141.691-2.232,1.294c-2.524,1.383-5.6,1.213-8.993-.049-17.41-6.453-42.965-41.6-42.965-41.6s-.4-5.758,2.831-9.8a16.558,16.558,0,0,1,7.885-5.256s19.407,17.888,31.538,29.007c11.225,10.295,15.009-2.976,24.964-16.869.8-1.116,1.642-2.24,2.531-3.348,11.929-14.961,19.7-6.268,19.7-6.268A11.536,11.536,0,0,1,938.216,474.982Z" transform="translate(-289.25 -128.21)" fill="#529ed6"/>
  <path id="Path_818" data-name="Path 818" d="M317.923,657.447s-7.178-23.192,3.687-38.31,17.875-16.308,19.37-25.512c2.6-16-5.741-20.509-4.665-29.634,1.594-13.526,16.221-8.57,14.882-24.636-1.063-12.756,6.6-36.11-16.358-24.035-20.578,10.824-25.984,41.928-29.173,72.045s2.513,70.081,2.513,70.081Z" transform="translate(-218.547 -134.55)" fill="#529ed6"/>
  <path id="Path_819" data-name="Path 819" d="M291.238,658.83s6.89-20.915-2.993-34.665-16.258-14.832-17.617-23.2c-2.364-14.556,5.221-18.653,4.243-26.953-1.45-12.3-14.753-7.794-13.535-22.406.967-11.6-6-32.843,14.878-21.861,18.717,9.844,23.633,38.135,26.534,65.528s-2.5,63.825-2.5,63.825Z" transform="translate(-212.819 -136.478)" fill="#2b67af"/>
  <g id="Group_1243" data-name="Group 1243" transform="translate(94.318 399.137)">
    <path id="Path_820" data-name="Path 820" d="M314.437,626.266a.355.355,0,0,1-.342-.264c-.023-.09,2.751-3.991,2.612-12.44-.145-8.717,4.27-13.5,7.814-17.66,5.52-6.485,3.751-14.72,1.865-23.449-.989-4.58-2.012-9.314-1.95-13.884.177-13.116,9.594-21.439,9.689-21.522a.355.355,0,0,1,.465.535c-.093.08-9.272,8.205-9.445,21-.061,4.489.953,9.184,1.934,13.724,1.924,8.907,3.738,17.316-2.019,24.06-3.69,4.323-7.788,8.56-7.645,17.188.138,8.361-2.658,12.181-2.635,12.271a.353.353,0,0,1-.252.432A.324.324,0,0,1,314.437,626.266Z" transform="translate(-314.095 -536.96)" fill="#404042" stroke="#404042" stroke-miterlimit="10" stroke-width="1"/>
  </g>
  <g id="Group_1244" data-name="Group 1244" transform="translate(54.168 397.719)">
    <path id="Path_821" data-name="Path 821" d="M299.175,636.3h-.024a.354.354,0,0,1-.329-.377,102.774,102.774,0,0,0-4.942-19.5c-.69-1.782-1.714-3.8-2.8-5.934a40.408,40.408,0,0,1-3.455-27.576c1.847-8.521-2.661-14.634-6.637-20.027-2.527-3.428-4.71-6.388-4.71-9.358,0-8.272-8.212-17.513-8.294-17.606a.354.354,0,1,1,.527-.473c.347.385,8.477,9.538,8.477,18.079,0,2.737,2.118,5.61,4.571,8.937,3.864,5.241,8.673,11.764,6.759,20.6a39.792,39.792,0,0,0,3.4,27.1c1.092,2.153,2.123,4.185,2.825,6,3.293,8.5,5.079,18.513,4.99,19.808A.356.356,0,0,1,299.175,636.3Z" transform="translate(-267.895 -535.329)" fill="#404042" stroke="#404042" stroke-miterlimit="10" stroke-width="1"/>
  </g>
  <g id="Group_1246" data-name="Group 1246" transform="translate(161.417 436.891)">
    <circle id="Ellipse_110" data-name="Ellipse 110" cx="34.37" cy="34.37" r="34.37" fill="#2b67af"/>
    <g id="Group_1245" data-name="Group 1245" transform="translate(11.069 18.458)">
      <path id="Path_822" data-name="Path 822" d="M404.042,616.755l14.194-6,1.287,4L409.158,618.8l10.365,4.044-1.287,3.994-14.194-6Z" transform="translate(-404.042 -602.837)" fill="#fff"/>
      <path id="Path_823" data-name="Path 823" d="M427.819,633.6h-5.05l11.094-31.954h4.982Z" transform="translate(-406.494 -601.643)" fill="#fff"/>
      <path id="Path_824" data-name="Path 824" d="M457.66,620.836l-14.195,6-1.286-3.994,10.365-4.044-10.365-4.042,1.286-4,14.195,6Z" transform="translate(-409.036 -602.837)" fill="#fff"/>
    </g>
  </g>
  <g id="Group_1248" data-name="Group 1248" transform="translate(381.834 63.601)">
    <circle id="Ellipse_111" data-name="Ellipse 111" cx="34.37" cy="34.37" r="34.37" transform="translate(0)" fill="#2b67af"/>
    <g id="Group_1247" data-name="Group 1247" transform="translate(11.069 18.457)">
      <path id="Path_825" data-name="Path 825" d="M657.673,187.214l14.194-6,1.287,3.995-10.365,4.043,10.365,4.044-1.287,3.994-14.194-6Z" transform="translate(-657.673 -173.295)" fill="#fff"/>
      <path id="Path_826" data-name="Path 826" d="M681.449,204.055H676.4L687.494,172.1h4.981Z" transform="translate(-660.125 -172.101)" fill="#fff"/>
      <path id="Path_827" data-name="Path 827" d="M711.291,191.3l-14.2,6L695.81,193.3l10.365-4.044-10.365-4.043,1.285-3.995,14.2,6Z" transform="translate(-662.667 -173.295)" fill="#fff"/>
    </g>
  </g>
  <g id="Group_1249" data-name="Group 1249" transform="translate(55.417 515.365)">
    <path id="Path_828" data-name="Path 828" d="M338.588,670.96l-10.482,52.624c-.538,2.665-2.985,3.792-5.586,4.574-10.2,3.089-25.985,2.87-37.069,0-2.626-.679-5.048-1.908-5.574-4.574L269.332,670.7h.218c0,2.806,15.465,5.074,34.544,5.074C322.571,675.778,337.665,673.651,338.588,670.96Z" transform="translate(-269.332 -670.704)" fill="#b9bec3"/>
  </g>
  <g id="Group_1250" data-name="Group 1250" transform="translate(83.715 522.615)">
    <path id="Path_829" data-name="Path 829" d="M341.462,679.046A118.684,118.684,0,0,1,317.9,694.137c-2.386,1.154-4.922,2.317-6.473,4.467s-1.608,5.634.615,7.078c.939.61,2.339,1.052,2.336,2.172a2.1,2.1,0,0,1-.64,1.3c-2.343,2.677-5.89,3.955-8.62,6.238s-4.49,6.678-2.084,9.3a10.488,10.488,0,0,0,3.917,2.746c1.96.746,2.391,4.038,3.16,4.038,10.382.009,16.682-2.227,16.682-2.227a5.688,5.688,0,0,0,5.577-4.576Z" transform="translate(-301.894 -679.046)" fill="#dbdee0"/>
  </g>
</svg>
